<svg width="90" height="120" viewBox="0 0 90 120" fill="none" xmlns="http://www.w3.org/2000/svg">
<path d="M45 0C63.6187 0 78.75 15.2 78.75 34C78.75 59.4857 45 97.1429 45 97.1429C45 97.1429 11.25 59.4857 11.25 34C11.25 15.2 26.3813 0 45 0ZM45 22.8571C42.0163 22.8571 39.1548 24.0612 37.0451 26.2045C34.9353 28.3478 33.75 31.2547 33.75 34.2857C33.75 37.3168 34.9353 40.2237 37.0451 42.3669C39.1548 44.5102 42.0163 45.7143 45 45.7143C47.9837 45.7143 50.8452 44.5102 52.9549 42.3669C55.0647 40.2237 56.25 37.3168 56.25 34.2857C56.25 31.2547 55.0647 28.3478 52.9549 26.2045C50.8452 24.0612 47.9837 22.8571 45 22.8571ZM90 97.1429C90 109.771 69.8625 120 45 120C20.1375 120 0 109.771 0 97.1429C0 89.7714 6.8625 83.2 17.4938 79.0286L21.0938 84.2286C15.0187 86.8 11.25 90.3429 11.25 94.2857C11.25 102.171 26.3813 108.571 45 108.571C63.6187 108.571 78.75 102.171 78.75 94.2857C78.75 90.3429 74.9813 86.8 68.9062 84.2286L72.5062 79.0286C83.1375 83.2 90 89.7714 90 97.1429Z" fill="#00B860"/>
</svg>
