<svg width="90" height="90" viewBox="0 0 90 90" fill="none" xmlns="http://www.w3.org/2000/svg">
<path d="M58.335 54.555L56.6288 56.355C56.6288 56.355 52.5675 60.6262 41.4863 48.96C30.405 37.2937 34.4663 33.0225 34.4663 33.0225L35.5425 31.8862C38.19 29.0962 38.4413 24.6187 36.1275 21.3487L31.4025 14.6625C28.5375 10.6125 23.0063 10.08 19.725 13.5337L13.8413 19.725C12.2175 21.4387 11.13 23.655 11.2613 26.1187C11.5988 32.4187 14.2913 45.9675 29.3063 61.7812C45.2325 78.5437 60.1763 79.2112 66.285 78.6075C68.22 78.42 69.9 77.3737 71.2538 75.9487L76.5788 70.3387C80.1788 66.5512 79.1663 60.0637 74.5613 57.4162L67.3988 53.2912C64.3763 51.555 60.6975 52.065 58.335 54.5512V54.555ZM49.725 7.04999C49.8456 6.31387 50.2532 5.65564 50.8586 5.21975C51.4639 4.78387 52.2174 4.60593 52.9538 4.72499C53.0475 4.74374 53.355 4.79999 53.5163 4.83749C53.835 4.90499 54.2813 5.01749 54.8363 5.17499C55.95 5.50124 57.5063 6.03749 59.3738 6.89249C63.1088 8.60624 68.0775 11.6025 73.2375 16.7587C78.3975 21.9187 81.3938 26.8912 83.1075 30.6262C83.9625 32.4937 84.495 34.0462 84.8213 35.1637C84.9856 35.7252 85.127 36.2932 85.245 36.8662L85.2638 36.9825C85.3873 37.7251 85.2139 38.4865 84.781 39.1025C84.3482 39.7184 83.6906 40.1395 82.95 40.275C82.2158 40.3942 81.4642 40.2177 80.8597 39.7841C80.2553 39.3504 79.8473 38.695 79.725 37.9612C79.6483 37.5468 79.5469 37.1373 79.4213 36.735C79.0381 35.4471 78.5619 34.1888 77.9963 32.97C76.5338 29.7825 73.9013 25.38 69.2588 20.7375C64.62 16.095 60.2138 13.4662 57.0263 12.0037C55.8087 11.4383 54.5516 10.9621 53.265 10.5787C52.8704 10.4674 52.4728 10.3674 52.0725 10.2787C51.3352 10.157 50.6754 9.75013 50.2355 9.14604C49.7955 8.54195 49.6109 7.78908 49.7213 7.04999H49.725Z" fill="#00B860"/>
<path fill-rule="evenodd" clip-rule="evenodd" d="M50.5725 19.9875C50.6736 19.6321 50.8437 19.3002 51.0732 19.0106C51.3026 18.721 51.5869 18.4795 51.9097 18.2998C52.2325 18.1201 52.5876 18.0058 52.9546 17.9633C53.3216 17.9209 53.6934 17.9512 54.0487 18.0525L54.06 18.0562L54.0712 18.06L54.1012 18.0675L54.1762 18.09L54.3862 18.165C55.3829 18.5489 56.3451 19.0169 57.2625 19.5637C59.0962 20.6512 61.6012 22.4512 64.545 25.3987C67.4887 28.3425 69.2925 30.8475 70.38 32.6812C70.9237 33.6 71.2837 34.3462 71.5162 34.8937C71.6409 35.1801 71.7535 35.4716 71.8537 35.7675L71.8725 35.8425L71.8837 35.8725V35.8837L71.8875 35.8875C71.8875 35.8875 71.8875 35.895 69.1875 36.6675L71.8875 35.895C72.0779 36.6046 71.9832 37.3605 71.6234 38.0011C71.2637 38.6417 70.6676 39.1161 69.9626 39.3229C69.2576 39.5296 68.4997 39.4523 67.8509 39.1074C67.2022 38.7626 66.7142 38.1776 66.4912 37.4775L66.48 37.44C66.2163 36.7869 65.9029 36.1551 65.5425 35.55C64.7025 34.1362 63.1912 31.9987 60.5662 29.3737C57.9412 26.7487 55.8075 25.2412 54.3937 24.405C53.7887 24.0445 53.1569 23.7311 52.5037 23.4675L52.4662 23.4525C51.7579 23.2395 51.1619 22.756 50.8074 22.1068C50.453 21.4575 50.3686 20.6985 50.5725 19.9875Z" fill="#00B860"/>
</svg>
