<svg width="90" height="91" viewBox="0 0 90 91" fill="none" xmlns="http://www.w3.org/2000/svg">
<path d="M49.5 46.5913L59.625 56.7163C60.45 57.5413 60.8625 58.5733 60.8625 59.8123C60.8625 61.0513 60.45 62.1193 59.625 63.0163C58.725 63.9163 57.6555 64.3663 56.4165 64.3663C55.1775 64.3663 54.1095 63.9163 53.2125 63.0163L43.65 53.4538C42.6 52.4038 41.8125 51.2413 41.2875 49.9663C40.7625 48.6913 40.5 47.3038 40.5 45.8038V32.3038C40.5 31.0288 40.932 29.9593 41.796 29.0953C42.66 28.2313 43.728 27.8008 45 27.8038C46.275 27.8038 47.3445 28.2358 48.2085 29.0998C49.0725 29.9638 49.503 31.0318 49.5 32.3038V46.5913ZM45 9.80383C46.275 9.80383 47.3445 10.2358 48.2085 11.0998C49.0725 11.9638 49.503 13.0318 49.5 14.3038C49.5 15.5788 49.068 16.6483 48.204 17.5123C47.34 18.3763 46.272 18.8068 45 18.8038C43.725 18.8038 42.6555 18.3718 41.7915 17.5078C40.9275 16.6438 40.497 15.5758 40.5 14.3038C40.5 13.0288 40.932 11.9593 41.796 11.0953C42.66 10.2313 43.728 9.80083 45 9.80383ZM81 45.8038C81 47.0788 80.568 48.1483 79.704 49.0123C78.84 49.8763 77.772 50.3068 76.5 50.3038C75.225 50.3038 74.1555 49.8718 73.2915 49.0078C72.4275 48.1438 71.997 47.0758 72 45.8038C72 44.5288 72.432 43.4593 73.296 42.5953C74.16 41.7313 75.228 41.3008 76.5 41.3038C77.775 41.3038 78.8445 41.7358 79.7085 42.5998C80.5725 43.4638 81.003 44.5318 81 45.8038ZM45 72.8038C46.275 72.8038 47.3445 73.2358 48.2085 74.0998C49.0725 74.9638 49.503 76.0318 49.5 77.3038C49.5 78.5788 49.068 79.6483 48.204 80.5123C47.34 81.3763 46.272 81.8068 45 81.8038C43.725 81.8038 42.6555 81.3718 41.7915 80.5078C40.9275 79.6438 40.497 78.5758 40.5 77.3038C40.5 76.0288 40.932 74.9593 41.796 74.0953C42.66 73.2313 43.728 72.8008 45 72.8038ZM18 45.8038C18 47.0788 17.568 48.1483 16.704 49.0123C15.84 49.8763 14.772 50.3068 13.5 50.3038C12.225 50.3038 11.1555 49.8718 10.2915 49.0078C9.4275 48.1438 8.997 47.0758 9 45.8038C9 44.5288 9.432 43.4593 10.296 42.5953C11.16 41.7313 12.228 41.3008 13.5 41.3038C14.775 41.3038 15.8445 41.7358 16.7085 42.5998C17.5725 43.4638 18.003 44.5318 18 45.8038ZM45 90.8038C38.775 90.8038 32.925 89.6218 27.45 87.2578C21.975 84.8938 17.2125 81.6883 13.1625 77.6413C9.1125 73.5913 5.907 68.8288 3.546 63.3538C1.185 57.8788 0.003 52.0288 0 45.8038C0 39.5788 1.182 33.7288 3.546 28.2538C5.91 22.7788 9.1155 18.0163 13.1625 13.9663C17.2125 9.91633 21.975 6.71083 27.45 4.34983C32.925 1.98883 38.775 0.806833 45 0.803833C51.225 0.803833 57.075 1.98583 62.55 4.34983C68.025 6.71383 72.7875 9.91933 76.8375 13.9663C80.8875 18.0163 84.0945 22.7788 86.4585 28.2538C88.8225 33.7288 90.003 39.5788 90 45.8038C90 52.0288 88.818 57.8788 86.454 63.3538C84.09 68.8288 80.8845 73.5913 76.8375 77.6413C72.7875 81.6913 68.025 84.8983 62.55 87.2623C57.075 89.6263 51.225 90.8068 45 90.8038ZM45 81.8038C55.05 81.8038 63.5625 78.3163 70.5375 71.3413C77.5125 64.3663 81 55.8538 81 45.8038C81 35.7538 77.5125 27.2413 70.5375 20.2663C63.5625 13.2913 55.05 9.80383 45 9.80383C34.95 9.80383 26.4375 13.2913 19.4625 20.2663C12.4875 27.2413 9 35.7538 9 45.8038C9 55.8538 12.4875 64.3663 19.4625 71.3413C26.4375 78.3163 34.95 81.8038 45 81.8038Z" fill="#00B860"/>
</svg>
