<svg width="513" height="1146" viewBox="0 0 513 1146" fill="none" xmlns="http://www.w3.org/2000/svg">
<path d="M-355.259 1063.7C-488.797 986.974 -588.549 863.593 -633.375 719.704C-678.201 575.814 -664.579 422.724 -595.395 292.876C-526.21 163.029 -406.901 66.6293 -262.752 24.1066C-118.603 -18.4162 39.0577 -3.7201 176.818 65.0803C314.578 133.881 421.612 251.379 475.235 392.673C528.858 533.968 524.858 687.955 464.081 822.001C403.304 956.047 290.527 1059.62 149.65 1110.76C8.77386 1161.91 -149.131 1156.61 -290.601 1095.99L-229.614 949.201C-127.847 992.809 -14.2561 996.62 87.085 959.828C188.426 923.035 269.553 848.531 313.274 752.103C356.995 655.676 359.872 544.904 321.298 443.262C282.723 341.62 205.728 257.097 106.628 207.604C7.52888 158.112 -105.886 147.54 -209.581 178.129C-313.277 208.719 -399.103 278.065 -448.871 371.472C-498.64 464.879 -508.439 575.006 -476.193 678.515C-443.947 782.023 -372.189 870.779 -276.127 925.972L-355.259 1063.7Z" fill="#00B860"/>
</svg>
