<svg width="100" height="50" viewBox="0 0 100 50" fill="none" xmlns="http://www.w3.org/2000/svg">
<path d="M17.405 17.72C17.465 18.32 17.495 18.77 17.495 19.07C17.495 20.51 17.24 21.515 16.73 22.085C16.22 22.625 15.32 22.895 14.03 22.895C12.77 22.895 11.795 22.88 11.105 22.85C9.935 31.37 9.35 37.475 9.35 41.165C9.35 42.935 9.38 44.21 9.44 44.99C9.53 45.8 9.74 47.165 10.07 49.085C7.91 48.395 6.32 47.27 5.3 45.71C4.28 44.18 3.77 42.365 3.77 40.265C3.77 37.115 4.22 32.465 5.12 26.315C5.33 24.755 5.465 23.72 5.525 23.21C3.935 23.48 2.315 23.99 0.665 24.74C0.605 24.08 0.575 23.585 0.575 23.255C0.575 21.635 1.07 20.54 2.06 19.97C3.05 19.4 4.475 19.1 6.335 19.07C6.935 16.13 7.73 13.595 8.72 11.465C9.74 9.335 10.85 7.73 12.05 6.65C14.33 4.55 16.715 3.5 19.205 3.5C20.885 3.5 22.295 4.01 23.435 5.03C24.605 6.02 25.19 7.25 25.19 8.72C25.19 10.16 24.695 11.42 23.705 12.5C22.715 13.58 21.41 14.12 19.79 14.12C19.16 14.12 18.545 14.015 17.945 13.805C18.425 13.445 18.89 12.815 19.34 11.915C19.82 11.015 20.06 10.175 20.06 9.395C20.06 8.585 19.88 7.955 19.52 7.505C19.19 7.055 18.74 6.83 18.17 6.83C16.94 6.83 15.68 7.865 14.39 9.935C13.13 11.975 12.185 15.065 11.555 19.205C14.225 19.205 16.175 18.71 17.405 17.72ZM33.6141 21.455C31.6641 21.455 29.9241 22.775 28.3941 25.415C26.8641 28.025 26.0991 30.635 26.0991 33.245C26.0991 38.705 27.5091 41.435 30.3291 41.435C32.3391 41.435 33.9741 40.13 35.2341 37.52C36.4941 34.88 37.1241 31.925 37.1241 28.655C37.1241 23.855 35.9541 21.455 33.6141 21.455ZM29.7891 17.405C30.1191 17.405 30.4191 17.51 30.6891 17.72C30.9891 17.9 31.1391 18.095 31.1391 18.305C28.1091 20.405 26.2941 23.33 25.6941 27.08C26.3241 25.4 27.0891 23.945 27.9891 22.715C28.9191 21.485 29.8791 20.555 30.8691 19.925C32.7591 18.755 34.6041 18.17 36.4041 18.17C38.2041 18.17 39.7341 19.055 40.9941 20.825C42.2541 22.595 42.8841 24.965 42.8841 27.935C42.8841 31.265 42.2091 34.325 40.8591 37.115C39.3591 40.265 37.2291 42.44 34.4691 43.64C32.9091 44.33 31.1991 44.675 29.3391 44.675C26.7291 44.675 24.4491 43.67 22.4991 41.66C20.5791 39.62 19.6191 36.71 19.6191 32.93C19.6191 29.12 20.5491 25.775 22.4091 22.895C24.2691 19.985 26.7291 18.155 29.7891 17.405Z" fill="#FF8413"/>
<path d="M61.3876 21.455C59.4376 21.455 57.6976 22.775 56.1676 25.415C54.6376 28.025 53.8726 30.635 53.8726 33.245C53.8726 38.705 55.2826 41.435 58.1026 41.435C60.1126 41.435 61.7476 40.13 63.0076 37.52C64.2676 34.88 64.8976 31.925 64.8976 28.655C64.8976 23.855 63.7276 21.455 61.3876 21.455ZM57.5626 17.405C57.8926 17.405 58.1926 17.51 58.4626 17.72C58.7626 17.9 58.9126 18.095 58.9126 18.305C55.8826 20.405 54.0676 23.33 53.4676 27.08C54.0976 25.4 54.8626 23.945 55.7626 22.715C56.6926 21.485 57.6526 20.555 58.6426 19.925C60.5326 18.755 62.3776 18.17 64.1776 18.17C65.9776 18.17 67.5076 19.055 68.7676 20.825C70.0276 22.595 70.6576 24.965 70.6576 27.935C70.6576 31.265 69.9826 34.325 68.6326 37.115C67.1326 40.265 65.0026 42.44 62.2426 43.64C60.6826 44.33 58.9726 44.675 57.1126 44.675C54.5026 44.675 52.2226 43.67 50.2726 41.66C48.3526 39.62 47.3926 36.71 47.3926 32.93C47.3926 29.12 48.3226 25.775 50.1826 22.895C52.0426 19.985 54.5026 18.155 57.5626 17.405ZM81.196 34.91C81.196 38.48 82.276 40.265 84.436 40.265C85.576 40.265 86.686 39.65 87.766 38.42C88.846 37.19 89.716 35.54 90.376 33.47C91.066 31.4 91.651 29.195 92.131 26.855C92.641 24.485 93.016 21.98 93.256 19.34C93.676 14.24 93.886 10.265 93.886 7.415C93.886 4.535 93.766 2.375 93.526 0.934999C95.686 1.415 97.201 2.435 98.071 3.995C98.941 5.555 99.376 7.52 99.376 9.89C99.376 12.26 98.866 16.67 97.846 23.12C96.856 29.57 96.361 34.28 96.361 37.25C96.361 40.22 96.496 42.74 96.766 44.81C94.636 44.24 93.166 43.22 92.356 41.75C91.576 40.25 91.186 38.375 91.186 36.125C90.256 38.705 88.861 40.745 87.001 42.245C85.141 43.745 83.221 44.495 81.241 44.495C79.261 44.495 77.641 43.745 76.381 42.245C75.151 40.715 74.536 38.48 74.536 35.54C74.536 30.89 75.811 26.9 78.361 23.57C80.911 20.21 83.926 18.53 87.406 18.53C88.396 18.53 89.956 18.77 92.086 19.25C90.226 19.73 88.561 20.57 87.091 21.77C85.651 22.94 84.526 24.29 83.716 25.82C82.036 28.85 81.196 31.88 81.196 34.91Z" fill="#00B860"/>
</svg>
